<svg width="106" height="48" viewBox="0 0 106 48" fill="none" xmlns="http://www.w3.org/2000/svg">
<g clip-path="url(#clip0_387_1196)">
<path d="M15.2743 38.3092V45.7323L9.16186 39.3195V45.4941H8.69824V38.2137L14.8116 44.5793V38.3092H15.2752H15.2743ZM20.6722 43.3307H16.7994V43.4073C16.7994 43.9473 16.9702 44.3806 17.311 44.7082C17.6526 45.0358 18.077 45.1992 18.5859 45.1992C18.9336 45.1992 19.2421 45.1055 19.5131 44.918C19.7833 44.7306 19.9994 44.4907 20.1598 44.1992L20.5267 44.3995C20.3271 44.7873 20.0535 45.0823 19.7057 45.2861C19.358 45.489 18.965 45.5913 18.5275 45.5913C17.8643 45.5913 17.338 45.3643 16.9484 44.9103C16.5589 44.4563 16.3637 43.918 16.3637 43.2955C16.3637 42.6729 16.5615 42.1441 16.9571 41.6901C17.3528 41.2361 17.8765 41.0091 18.5266 41.0091C19.1768 41.0091 19.7301 41.2378 20.1101 41.697C20.4901 42.1562 20.6766 42.7022 20.6705 43.3342M16.7994 42.9309H20.2373C20.1859 42.5302 20.0038 42.1759 19.6918 41.8681C19.3798 41.5603 18.9946 41.4055 18.538 41.4055C18.0813 41.4055 17.6944 41.5568 17.3598 41.8595C17.0251 42.163 16.8377 42.5199 16.7994 42.93M25.7136 41.0917V45.2843C25.7136 45.6214 25.6927 45.9439 25.6509 46.2517C25.6091 46.5595 25.4818 46.8605 25.2692 47.152C25.0626 47.4314 24.8038 47.6429 24.4918 47.7857C24.1799 47.9284 23.8461 47.9998 23.4923 47.9998C22.9066 47.9998 22.4012 47.8364 21.9759 47.5088C21.5506 47.1812 21.3223 46.716 21.2901 46.1124H21.7249C21.7511 46.5698 21.9323 46.9318 22.2705 47.1992C22.6086 47.4658 23.0025 47.5991 23.4539 47.5991C23.7371 47.5991 24.0056 47.5484 24.26 47.4469C24.5145 47.3454 24.7219 47.1769 24.8831 46.9422C25.0574 46.6885 25.1664 46.4211 25.2117 46.1416C25.257 45.8622 25.2796 45.5758 25.2796 45.2843V44.7314H25.2605C25.0609 44.998 24.8064 45.2078 24.4979 45.3609C24.1886 45.5131 23.8635 45.5896 23.5228 45.5896C22.8788 45.5896 22.3576 45.3609 21.9585 44.9034C21.5594 44.446 21.3598 43.9094 21.3598 43.2929C21.3598 42.6764 21.5672 42.1175 21.9829 41.6729C22.3986 41.2284 22.931 41.0057 23.5812 41.0057C23.9419 41.0057 24.2609 41.0788 24.5372 41.2249C24.8143 41.3711 25.0557 41.5835 25.2613 41.863L25.2805 41.8535V41.0908H25.7154L25.7136 41.0917ZM23.5219 41.396C23.013 41.4029 22.5981 41.5981 22.2766 41.9825C21.9541 42.3668 21.7938 42.7976 21.7938 43.2731C21.7938 43.7753 21.9515 44.2216 22.267 44.6119C22.5825 45.0023 23.0103 45.1975 23.5515 45.1975C24.1241 45.1975 24.5607 45.0006 24.8596 44.6068C25.1594 44.213 25.3084 43.7521 25.3084 43.225C25.3084 42.6979 25.1463 42.2869 24.8204 41.9343C24.4953 41.5818 24.0622 41.4055 23.5219 41.4055V41.396ZM29.0845 40.9962C29.7407 41.0022 30.2967 41.2249 30.7507 41.6626C31.2047 42.1011 31.4313 42.6471 31.4313 43.3015C31.4313 43.9559 31.2039 44.5001 30.7507 44.9361C30.2967 45.3712 29.7416 45.5887 29.0845 45.5887C28.4274 45.5887 27.8932 45.3652 27.4426 44.9172C26.9921 44.4692 26.7664 43.9344 26.7664 43.3118C26.7664 42.6893 26.9912 42.1338 27.4426 41.6824C27.8932 41.231 28.4405 41.0057 29.0845 41.0057V40.9962ZM29.0548 41.396C28.5267 41.4029 28.0858 41.5964 27.732 41.9773C27.3781 42.3582 27.2004 42.8028 27.2004 43.311C27.2004 43.8191 27.3773 44.2525 27.732 44.6308C28.0858 45.0092 28.5267 45.1975 29.0548 45.1975C29.5829 45.1975 30.0623 45.0169 30.4361 44.6541C30.8091 44.2921 30.9965 43.8441 30.9965 43.311C30.9965 42.7778 30.8117 42.3101 30.4413 41.9481C30.071 41.5861 29.6091 41.4046 29.0557 41.4046V41.3952L29.0548 41.396ZM29.2866 38.6901L29.8758 38.8715L28.6784 40.2533L28.3115 40.0916L29.2866 38.6909V38.6901ZM35.902 41.5396V42.1115C35.6893 41.8888 35.4549 41.7159 35.1969 41.5921C34.939 41.4683 34.6497 41.4064 34.3281 41.4064C33.8 41.4064 33.3608 41.5955 33.0096 41.9739C32.6584 42.3522 32.4832 42.7916 32.4832 43.2938C32.4832 43.7959 32.6575 44.2388 33.0052 44.6231C33.3529 45.0075 33.7904 45.1992 34.3185 45.1992C34.6401 45.1992 34.9442 45.1278 35.2309 44.9851C35.5176 44.8424 35.7608 44.6498 35.9603 44.409V44.9808C35.7346 45.1837 35.4837 45.3368 35.2074 45.4383C34.9303 45.5397 34.6409 45.5905 34.3385 45.5905C33.6754 45.5905 33.1281 45.3677 32.6967 44.9232C32.2653 44.4787 32.0501 43.9352 32.0501 43.2938C32.0501 42.6523 32.2688 42.1106 32.7072 41.6695C33.1446 41.2275 33.6919 41.0074 34.349 41.0074C34.6383 41.0074 34.9155 41.0521 35.1795 41.1407C35.4436 41.2292 35.685 41.366 35.9037 41.5508V41.5414L35.902 41.5396ZM37.6893 45.4941H37.2545V41.0917H37.6893V45.4941ZM37.4767 39.2335C37.5856 39.2395 37.6797 39.2808 37.7564 39.3573C37.834 39.4338 37.8723 39.5259 37.8723 39.6333C37.8723 39.7408 37.834 39.8337 37.7564 39.9094C37.6789 39.9859 37.5856 40.0237 37.4767 40.0237C37.3678 40.0237 37.2736 39.9859 37.1961 39.9076C37.1194 39.8311 37.0802 39.7374 37.0802 39.6282C37.0802 39.519 37.1185 39.4252 37.1961 39.3487C37.2736 39.2705 37.3669 39.2326 37.4767 39.2326M41.2336 40.9962C41.8898 41.0022 42.4458 41.2249 42.8998 41.6626C43.3539 42.1011 43.5804 42.6471 43.5804 43.3015C43.5804 43.9559 43.353 44.5001 42.8998 44.9361C42.4458 45.3712 41.8907 45.5887 41.2336 45.5887C40.5765 45.5887 40.0423 45.3652 39.5917 44.9172C39.1412 44.4692 38.9155 43.9344 38.9155 43.3118C38.9155 42.6893 39.1412 42.1338 39.5917 41.6824C40.0423 41.231 40.5896 41.0057 41.2336 41.0057V40.9962ZM41.204 41.396C40.6758 41.4029 40.2349 41.5964 39.8811 41.9773C39.5273 42.3582 39.3495 42.8028 39.3495 43.311C39.3495 43.8191 39.5264 44.2525 39.8811 44.6308C40.2349 45.0092 40.6758 45.1975 41.204 45.1975C41.7321 45.1975 42.2114 45.0169 42.5852 44.6541C42.9582 44.2921 43.1456 43.8441 43.1456 43.311C43.1456 42.7778 42.9608 42.3101 42.5905 41.9481C42.2201 41.5861 41.7582 41.4046 41.2048 41.4046V41.3952L41.204 41.396ZM46.8824 41.7013L46.506 41.8922C46.4354 41.746 46.3308 41.6291 46.1922 41.5396C46.0537 41.4511 45.8977 41.4064 45.7243 41.4064H45.6955C45.5151 41.4124 45.3478 41.4829 45.1935 41.6162C45.0393 41.7495 44.9617 41.9085 44.9617 42.0925C44.9617 42.3213 45.0471 42.4881 45.2179 42.593C45.3887 42.6979 45.5866 42.7916 45.8123 42.8742C45.8506 42.887 45.889 42.9017 45.9282 42.9171C45.9665 42.9326 46.0084 42.9472 46.0537 42.9601C46.3238 43.0616 46.5722 43.1983 46.797 43.3694C47.0219 43.5414 47.1352 43.8269 47.1352 44.2267C47.1352 44.6265 46.9949 44.9619 46.7151 45.213C46.4354 45.4641 46.0955 45.5896 45.6964 45.5896C45.3234 45.5896 44.9966 45.4864 44.716 45.28C44.4362 45.0737 44.2506 44.7925 44.1608 44.4365L44.5861 44.2938C44.6698 44.5603 44.8014 44.7779 44.9818 44.9464C45.1622 45.1149 45.4001 45.1984 45.6964 45.1984C45.9927 45.1984 46.2175 45.1012 46.411 44.9077C46.6044 44.7143 46.7003 44.4804 46.7003 44.2069C46.7003 43.9335 46.6114 43.74 46.4345 43.6257C46.2576 43.5113 46.0563 43.4159 45.8306 43.3402C45.7983 43.3273 45.7643 43.3144 45.7295 43.3024C45.6938 43.2895 45.6598 43.2766 45.6284 43.2645C45.3513 43.1631 45.0985 43.0298 44.8702 42.8647C44.6419 42.6996 44.5277 42.452 44.5277 42.1218C44.5277 41.7916 44.6497 41.5147 44.8946 41.3118C45.1395 41.1089 45.4227 41.0065 45.7443 41.0065C45.7704 41.0065 45.7957 41.0083 45.8219 41.0117C45.848 41.0143 45.8733 41.0169 45.8994 41.0169C46.1051 41.0487 46.3003 41.1261 46.4833 41.2499C46.6672 41.3737 46.8005 41.5276 46.8842 41.7116V41.7022L46.8824 41.7013ZM51.7505 45.4941H51.2868V38.3092H51.7505V45.4941ZM53.7104 41.0917V41.6446H53.7295C53.8324 41.4476 53.9858 41.292 54.1879 41.1776C54.391 41.0633 54.6115 41.0057 54.8494 41.0057C55.1326 41.0057 55.3836 41.0745 55.6023 41.2103C55.8211 41.347 55.9893 41.5457 56.1052 41.8062C56.2272 41.5457 56.4041 41.347 56.6359 41.2103C56.8677 41.0736 57.1248 41.0057 57.4089 41.0057C57.9814 41.0057 58.3553 41.1742 58.5287 41.5104C58.7021 41.8475 58.7893 42.2568 58.7893 42.7392V45.4933H58.3544V42.6729C58.3544 42.3428 58.3013 42.0487 58.195 41.7916C58.0886 41.5345 57.8228 41.4055 57.3984 41.4055C56.974 41.4055 56.6551 41.5577 56.4999 41.863C56.3457 42.1682 56.262 42.501 56.249 42.8638V45.4933H55.8141V42.7581C55.8141 42.4219 55.7566 42.1123 55.6407 41.8294C55.5248 41.5465 55.2511 41.4055 54.8198 41.4055C54.4468 41.4055 54.1827 41.5328 54.0276 41.7864C53.8733 42.0409 53.7766 42.3195 53.7383 42.6248C53.7252 42.7013 53.7174 42.777 53.7139 42.8535C53.7104 42.93 53.7095 43.0057 53.7095 43.0822V45.4933H53.2746V41.0908H53.7095L53.7104 41.0917ZM62.1601 40.9962C62.8163 41.0022 63.3723 41.2249 63.8264 41.6626C64.2804 42.1011 64.507 42.6471 64.507 43.3015C64.507 43.9559 64.2795 44.5001 63.8264 44.9361C63.3723 45.3712 62.8172 45.5887 62.1601 45.5887C61.503 45.5887 60.9688 45.3652 60.5183 44.9172C60.0677 44.4692 59.842 43.9344 59.842 43.3118C59.842 42.6893 60.0677 42.1338 60.5183 41.6824C60.9688 41.231 61.5161 41.0057 62.1601 41.0057V40.9962ZM62.1314 41.396C61.6033 41.4029 61.1623 41.5964 60.8085 41.9773C60.4547 42.3582 60.2769 42.8028 60.2769 43.311C60.2769 43.8191 60.4538 44.2525 60.8085 44.6308C61.1623 45.0092 61.6033 45.1975 62.1314 45.1975C62.6595 45.1975 63.1388 45.0169 63.5126 44.6541C63.8856 44.2921 64.073 43.8441 64.073 43.311C64.073 42.7778 63.8882 42.3101 63.5179 41.9481C63.1475 41.5861 62.6856 41.4046 62.1322 41.4046V41.3952L62.1314 41.396ZM65.5597 45.4941V37.6333H65.9946V41.8544H66.0138C66.2002 41.5809 66.4486 41.3711 66.758 41.2258C67.0665 41.0796 67.3924 41.0065 67.7332 41.0065C68.4024 41.0065 68.934 41.2241 69.3262 41.6592C69.7192 42.0943 69.9153 42.6325 69.9153 43.274C69.9153 43.9154 69.7175 44.4623 69.3218 44.9129C68.9262 45.3643 68.3902 45.5896 67.714 45.5896C67.6687 45.5896 67.6251 45.5879 67.5841 45.5844C67.5423 45.581 67.4987 45.5767 67.4534 45.5698C67.1641 45.538 66.887 45.4477 66.6229 45.2981C66.3588 45.1485 66.1567 44.9533 66.0146 44.7117L65.9954 44.7022V45.4933H65.5606L65.5597 45.4941ZM67.7236 45.1889C68.2708 45.1949 68.7005 45.0032 69.0125 44.6119C69.3245 44.2216 69.4813 43.7753 69.4813 43.2731C69.4813 42.771 69.3201 42.3582 68.9985 41.9773C68.677 41.5964 68.2587 41.4055 67.7427 41.4055C67.1763 41.4055 66.7388 41.5869 66.4294 41.9489C66.1201 42.3109 65.9658 42.7555 65.9658 43.2826C65.9658 43.8097 66.1218 44.2448 66.4347 44.6257C66.7467 45.0066 67.1763 45.1975 67.7244 45.1975V45.188L67.7236 45.1889ZM71.5667 45.4941H71.1319V41.0917H71.5667V45.4941ZM71.3541 39.2335C71.463 39.2395 71.5572 39.2808 71.6338 39.3573C71.7114 39.4338 71.7497 39.5259 71.7497 39.6333C71.7497 39.7408 71.7114 39.8337 71.6338 39.9094C71.5563 39.9859 71.463 40.0237 71.3541 40.0237C71.2452 40.0237 71.151 39.9859 71.0744 39.9076C70.9968 39.8311 70.9585 39.7374 70.9585 39.6282C70.9585 39.519 70.9968 39.4252 71.0744 39.3487C71.1519 39.2705 71.2452 39.2326 71.3541 39.2326M73.6626 45.4941H73.2278V37.6333H73.6626V45.4941ZM75.748 45.4941H75.3132V41.0917H75.748V45.4941ZM75.5363 39.2335C75.6461 39.2395 75.7393 39.2808 75.816 39.3573C75.8936 39.4338 75.9319 39.5259 75.9319 39.6333C75.9319 39.7408 75.8936 39.8337 75.816 39.9094C75.7384 39.9859 75.6452 40.0237 75.5363 40.0237C75.4273 40.0237 75.3332 39.9859 75.2565 39.9076C75.179 39.8311 75.1406 39.7374 75.1406 39.6282C75.1406 39.519 75.179 39.4252 75.2565 39.3487C75.3341 39.2705 75.4273 39.2326 75.5363 39.2326M81.3307 41.0917V45.4941H80.8958V44.7031H80.8766C80.7354 44.9507 80.5324 45.1493 80.2683 45.299C80.0043 45.4477 79.7271 45.5389 79.4378 45.5707C79.3925 45.5767 79.3489 45.5819 79.3071 45.5853C79.2653 45.5887 79.2217 45.5905 79.1773 45.5905C78.501 45.5905 77.965 45.3652 77.5694 44.9137C77.1738 44.4632 76.9759 43.9163 76.9759 43.2748C76.9759 42.6334 77.172 42.0951 77.565 41.66C77.9581 41.2249 78.4888 41.0074 79.1581 41.0074C79.4988 41.0074 79.8248 41.0805 80.1333 41.2267C80.4426 41.3728 80.6901 41.5852 80.8766 41.8647L80.8958 41.8552V41.0925H81.3307V41.0917ZM79.138 41.396C78.6291 41.4029 78.2143 41.5981 77.8927 41.9825C77.5703 42.3668 77.4099 42.7976 77.4099 43.2731C77.4099 43.7753 77.5677 44.2216 77.8831 44.6119C78.1986 45.0023 78.6274 45.1975 79.1677 45.1975C79.7402 45.1975 80.1768 45.0006 80.4766 44.6068C80.7755 44.213 80.9254 43.7521 80.9254 43.225C80.9254 42.6979 80.7633 42.2869 80.4383 41.9343C80.1132 41.5818 79.6801 41.4055 79.1389 41.4055V41.396H79.138ZM79.5624 38.6901L80.1516 38.8715L78.9542 40.2533L78.5873 40.0916L79.5624 38.6909V38.6901ZM83.2522 41.0917V41.6635H83.2714C83.362 41.4666 83.4858 41.3083 83.6435 41.1871C83.8013 41.0667 83.9991 41.0057 84.237 41.0057C84.3015 41.0057 84.3625 41.0108 84.4209 41.0203C84.4793 41.0297 84.5368 41.0444 84.5943 41.0633C84.6135 41.0693 84.6326 41.077 84.6527 41.0874C84.6719 41.0968 84.691 41.1046 84.7102 41.1114L84.4784 41.4829C84.4592 41.476 84.44 41.4683 84.42 41.4588C84.4008 41.4494 84.3782 41.4408 84.352 41.4347C84.3268 41.4287 84.2971 41.4218 84.2649 41.4158C84.2326 41.4098 84.2004 41.4064 84.1682 41.4064C83.8335 41.4064 83.6061 41.5242 83.4875 41.7589C83.3681 41.9937 83.2958 42.2516 83.2697 42.5311C83.2566 42.6394 83.2505 42.7452 83.2505 42.8501V45.4941H82.8156V41.0917H83.2505H83.2522ZM86.1011 45.4941H85.6662V41.0917H86.1011V45.4941ZM85.8884 39.2335C85.9982 39.2395 86.0915 39.2808 86.1682 39.3573C86.2457 39.4338 86.2841 39.5259 86.2841 39.6333C86.2841 39.7408 86.2457 39.8337 86.1682 39.9094C86.0906 39.9859 85.9974 40.0237 85.8884 40.0237C85.7795 40.0237 85.6854 39.9859 85.6087 39.9076C85.5311 39.8311 85.4928 39.7374 85.4928 39.6282C85.4928 39.519 85.5311 39.4252 85.6087 39.3487C85.6862 39.2705 85.7795 39.2326 85.8884 39.2326M89.6453 40.9962C90.3015 41.0022 90.8575 41.2249 91.3116 41.6626C91.7656 42.1011 91.9922 42.6471 91.9922 43.3015C91.9922 43.9559 91.7647 44.5001 91.3116 44.9361C90.8575 45.3712 90.3024 45.5887 89.6453 45.5887C88.9882 45.5887 88.454 45.3652 88.0035 44.9172C87.5529 44.4692 87.3272 43.9344 87.3272 43.3118C87.3272 42.6893 87.5529 42.1338 88.0035 41.6824C88.454 41.231 89.0013 41.0057 89.6453 41.0057V40.9962ZM89.6157 41.396C89.0876 41.4029 88.6466 41.5964 88.2928 41.9773C87.9381 42.3582 87.7612 42.8028 87.7612 43.311C87.7612 43.8191 87.9381 44.2525 88.2928 44.6308C88.6466 45.0092 89.0876 45.1975 89.6157 45.1975C90.1438 45.1975 90.6231 45.0169 90.997 44.6541C91.37 44.2921 91.5573 43.8441 91.5573 43.311C91.5573 42.7778 91.3726 42.3101 91.0022 41.9481C90.6318 41.5861 90.1699 41.4046 89.6166 41.4046V41.3952L89.6157 41.396ZM95.295 41.7013L94.9186 41.8922C94.848 41.746 94.7434 41.6291 94.6048 41.5396C94.4663 41.4511 94.3103 41.4064 94.1369 41.4064H94.1081C93.9277 41.4124 93.7604 41.4829 93.6061 41.6162C93.4519 41.7495 93.3743 41.9085 93.3743 42.0925C93.3743 42.3213 93.4597 42.4881 93.6305 42.593C93.8013 42.6979 93.9992 42.7916 94.224 42.8742C94.2623 42.887 94.3016 42.9017 94.3399 42.9171C94.3783 42.9326 94.4201 42.9472 94.4654 42.9601C94.7356 43.0616 94.9839 43.1983 95.2096 43.3694C95.4353 43.5414 95.5478 43.8269 95.5478 44.2267C95.5478 44.6265 95.4075 44.9619 95.1277 45.213C94.848 45.4641 94.5081 45.5896 94.109 45.5896C93.736 45.5896 93.4092 45.4864 93.1286 45.28C92.8488 45.0737 92.6632 44.7925 92.5734 44.4365L92.9987 44.2938C93.0824 44.5603 93.2148 44.7779 93.3944 44.9464C93.5748 45.1149 93.8127 45.1984 94.109 45.1984C94.4053 45.1984 94.631 45.1012 94.8236 44.9077C95.017 44.7143 95.1129 44.4804 95.1129 44.2069C95.1129 43.9335 95.024 43.74 94.8471 43.6257C94.6702 43.5113 94.4689 43.4159 94.244 43.3402C94.2118 43.3273 94.1778 43.3144 94.143 43.3024C94.1072 43.2895 94.0732 43.2766 94.041 43.2645C93.7639 43.1631 93.512 43.0298 93.2828 42.8647C93.0545 42.6996 92.9403 42.452 92.9403 42.1218C92.9403 41.7916 93.0623 41.5147 93.3072 41.3118C93.5521 41.1089 93.8353 41.0065 94.1569 41.0065C94.183 41.0065 94.2083 41.0083 94.2345 41.0117C94.2606 41.0143 94.2859 41.0169 94.312 41.0169C94.5177 41.0487 94.7129 41.1261 94.8959 41.2499C95.0798 41.3737 95.2131 41.5276 95.2968 41.7116V41.7022L95.295 41.7013Z" fill="white"/>
<path d="M103.388 0C103.827 0 104.255 0.110922 104.673 0.333626C105.091 0.55547 105.418 0.873618 105.65 1.28721C105.883 1.7008 106.001 2.13331 106.001 2.5813C106.001 3.02929 105.886 3.45406 105.656 3.86335C105.426 4.27437 105.105 4.59252 104.689 4.81866C104.274 5.04652 103.84 5.15916 103.388 5.15916C102.936 5.15916 102.502 5.04652 102.086 4.81866C101.671 4.59252 101.348 4.27351 101.118 3.86335C100.887 3.45406 100.771 3.02585 100.771 2.5813C100.771 2.13675 100.888 1.70166 101.122 1.28721C101.357 0.874478 101.684 0.55547 102.102 0.333626C102.52 0.110922 102.949 0 103.388 0ZM103.388 0.427351C103.02 0.427351 102.662 0.520216 102.314 0.705946C101.967 0.891675 101.695 1.15737 101.499 1.50304C101.303 1.8487 101.204 2.20812 101.204 2.5813C101.204 2.95448 101.301 3.30874 101.493 3.65011C101.686 3.99147 101.956 4.25717 102.302 4.4472C102.648 4.63723 103.011 4.73353 103.387 4.73353C103.764 4.73353 104.125 4.63809 104.471 4.4472C104.818 4.25717 105.087 3.99147 105.279 3.65011C105.471 3.3096 105.567 2.95362 105.567 2.5813C105.567 2.20898 105.468 1.8487 105.273 1.50304C105.078 1.15823 104.806 0.891675 104.457 0.705946C104.109 0.520216 103.751 0.427351 103.387 0.427351M102.239 4.00351V1.23218H103.207C103.537 1.23218 103.777 1.25798 103.924 1.30957C104.073 1.36116 104.19 1.44973 104.279 1.57784C104.366 1.7051 104.41 1.8401 104.41 1.9837C104.41 2.18577 104.337 2.3629 104.189 2.51251C104.042 2.66299 103.847 2.74639 103.603 2.76531C103.703 2.80659 103.783 2.85474 103.843 2.91235C103.956 3.02069 104.095 3.20384 104.259 3.4618L104.601 4.00437H104.05L103.8 3.56842C103.603 3.22448 103.445 3.00865 103.324 2.92181C103.241 2.85904 103.12 2.82722 102.96 2.82808H102.693V4.00437H102.239V4.00351ZM102.694 2.44286H103.245C103.509 2.44286 103.689 2.40417 103.785 2.32764C103.88 2.25026 103.929 2.14793 103.929 2.02239C103.929 1.94071 103.906 1.86676 103.859 1.80313C103.813 1.73778 103.75 1.69049 103.668 1.65867C103.585 1.62772 103.433 1.61138 103.212 1.61138H102.695V2.44458L102.694 2.44286Z" fill="white"/>
<path d="M36.5992 10.5494C38.038 10.5494 39.2058 9.39723 39.2058 7.9776C39.2058 6.55797 38.038 5.40576 36.5992 5.40576C35.1604 5.40576 33.9927 6.55797 33.9927 7.9776C33.9927 9.39723 35.1604 10.5494 36.5992 10.5494Z" fill="white"/>
<path d="M97.525 19.3184C95.416 17.891 92.6666 17.1773 89.2766 17.1773H72.1854C72.1854 13.7903 74.1706 12.1343 76.2072 11.326C76.8948 11.0242 77.646 10.8135 78.4599 10.6957C78.6577 10.6673 78.9148 10.6424 79.2303 10.6209C80.0233 10.5427 80.554 10.5641 80.554 10.5641C81.2233 10.5461 82.0216 10.5375 82.9488 10.5384L98.2501 10.5495L98.2544 5.43164H79.2704C73.6093 5.43164 69.2651 7.17286 66.2358 10.6562C63.7121 13.5367 62.4502 17.0466 62.4502 21.1843C62.4502 25.6358 64.3256 28.8964 68.0746 30.9652C71.3557 32.7718 76.1697 33.6755 82.5148 33.6755C87.5275 33.6755 91.565 33.0994 94.63 31.9472C98.2718 30.5851 100.273 28.4252 100.633 25.4655C100.669 25.2824 100.687 25.0201 100.687 24.6796C100.687 22.5325 99.6322 20.7449 97.5232 19.3175L97.525 19.3184ZM87.4935 28.8044H81.6129C71.3017 28.8044 72.2176 21.9083 72.2176 21.9083H87.4927C89.423 21.9083 90.9872 23.4517 90.9872 25.3563C90.9872 27.2609 89.423 28.8044 87.4927 28.8044H87.4935Z" fill="white"/>
<path d="M35.0739 19.3316C32.965 17.9042 30.2155 17.1906 26.8255 17.1906H9.73428C9.73428 13.8036 11.7195 12.1475 13.7561 11.3392C14.4437 11.0374 15.1949 10.8267 16.0088 10.7089C16.2067 10.6806 16.4638 10.6556 16.7792 10.6341C17.5723 10.5559 18.103 10.5774 18.103 10.5774C18.7723 10.5593 19.5705 10.5507 20.4978 10.5516L27.0991 10.5559L33.9767 10.5696C33.2822 9.89637 32.8499 8.91526 32.8499 7.91955C32.8499 6.92383 33.2142 6.09578 33.8129 5.43799H27.0991V5.44401H16.8193C11.1583 5.44401 6.814 7.18523 3.78478 10.6685C1.26188 13.5499 0 17.0599 0 21.1975C0 25.649 1.8754 28.9096 5.62445 30.9784C8.90552 32.785 13.7195 33.6887 20.0647 33.6887C25.0773 33.6887 29.1148 33.1126 32.1798 31.9604C35.8216 30.5984 37.8225 28.4384 38.1824 25.4788C38.2191 25.2956 38.2365 25.0334 38.2365 24.6929C38.2365 22.5458 37.182 20.7581 35.0731 19.3308L35.0739 19.3316ZM25.0433 28.8176H19.1627C8.85149 28.8176 9.7674 21.9215 9.7674 21.9215H25.0425C26.9728 21.9215 28.5371 23.465 28.5371 25.3696C28.5371 27.2742 26.9728 28.8176 25.0425 28.8176H25.0433Z" fill="white"/>
<path d="M66.6474 8.95888C66.2918 8.53153 65.8692 8.12998 65.382 7.75422C64.2831 6.91414 62.9489 6.30277 61.3794 5.91928C61.3715 5.9167 61.3637 5.91498 61.3558 5.91326C61.3123 5.90294 61.2678 5.89262 61.2234 5.8823C61.1476 5.86511 61.0717 5.84791 60.995 5.83071C60.9689 5.82469 60.9436 5.81953 60.9175 5.81351C60.8652 5.80234 60.8129 5.79202 60.7598 5.7817C60.7371 5.7774 60.7144 5.77224 60.6909 5.76794C60.6351 5.75676 60.5785 5.74644 60.5218 5.73613C60.5044 5.73269 60.487 5.73011 60.4696 5.72667C60.4068 5.71549 60.3441 5.70431 60.2805 5.69399C60.2752 5.69399 60.27 5.69227 60.2648 5.69141C59.2451 5.52202 58.1384 5.43604 56.9436 5.43604H39.3818C39.9805 6.09211 40.3456 6.92445 40.3456 7.91071C40.3456 8.89697 39.9247 9.85744 39.2459 10.5273H39.2398L41.5474 10.5359H55.2591C57.0891 10.5453 58.5698 12.0114 58.5698 13.8188C58.5698 15.6262 57.0891 17.0932 55.2591 17.1018H41.5361V19.1809H41.5474V19.1955H41.5361V21.26H55.2591C57.0891 21.2695 58.5698 22.7356 58.5698 24.543C58.5698 26.3504 57.0891 27.8173 55.2591 27.8259H41.5474L38.5713 27.8492L38.5661 27.8612C37.6912 29.9498 35.8436 31.544 33.0262 32.6446C32.7709 32.7452 32.5085 32.8407 32.2393 32.9327H40.7788V32.9395H56.9445C57.8342 32.9395 58.6761 32.8922 59.4691 32.7977C60.4974 32.6756 61.5057 32.4262 62.4765 32.0694C63.1145 31.8355 63.8822 31.5371 64.3537 31.2963C64.9062 31.0143 65.4021 30.7039 65.8404 30.366C62.9907 28.2155 61.565 25.1466 61.565 21.1586C61.565 16.8533 62.8591 13.2014 65.4474 10.204C65.8273 9.76113 66.2273 9.34496 66.6474 8.9563V8.95888Z" fill="white"/>
</g>
<defs>
<clipPath id="clip0_387_1196">
<rect width="106" height="48" fill="white"/>
</clipPath>
</defs>
</svg>
