<svg width="143" height="344" viewBox="0 0 143 344" fill="none" xmlns="http://www.w3.org/2000/svg">
<path d="M141.244 166.835C143.549 171.298 143.116 176.105 140.276 177.572C137.436 179.039 133.265 176.611 130.96 172.148C129.951 170.194 129.467 168.175 129.479 166.399L119.948 147.367L128.975 143.084L137.412 162.301C138.868 163.318 140.235 164.882 141.244 166.835Z" fill="#FFB6B6"/>
<path d="M70.3161 338.559L78.4425 338.558L82.3082 307.213L70.3145 307.214L70.3161 338.559Z" fill="#2F2E41"/>
<path d="M98.158 338.374C98.411 338.8 98.5445 340.176 98.5445 340.671C98.5445 342.195 97.3097 343.429 95.7864 343.429H70.6201C69.5809 343.429 68.7385 342.587 68.7385 341.548V340.5C68.7385 340.5 67.4935 337.351 70.0567 333.47C70.0567 333.47 73.2424 336.509 78.0025 331.749L79.4063 329.206L89.5674 336.637L95.1995 337.33C96.4317 337.482 97.5242 337.307 98.158 338.374V338.374Z" fill="#2F2E41"/>
<path d="M32.192 338.559L40.3183 338.558L44.1841 307.213L32.1903 307.214L32.192 338.559Z" fill="#2F2E41"/>
<path d="M60.0338 338.374C60.2869 338.8 60.4204 340.176 60.4204 340.671C60.4204 342.195 59.1855 343.429 57.6623 343.429H32.4959C31.4568 343.429 30.6144 342.587 30.6144 341.548V340.5C30.6144 340.5 29.3694 337.351 31.9326 333.47C31.9326 333.47 35.1182 336.509 39.8784 331.749L41.2821 329.206L51.4432 336.637L57.0754 337.33C58.3076 337.482 59.4 337.307 60.0338 338.374V338.374Z" fill="#2F2E41"/>
<path d="M20.6893 153.618L17.2659 174.539L27.9165 242.247L30.5792 324.029H44.9587L52.2608 246.812L51.5001 195.841L68.6172 324.789H83.5598L84.9735 163.128L20.6893 153.618Z" fill="#2F2E41"/>
<path d="M38.5672 45.2102H65.4873L88.7773 58.9039C85.1525 57.9825 82.3522 91.6119 82.2569 121.327C82.2506 123.301 80.294 125.571 80.3121 127.5C80.3277 129.162 82.3148 130.489 82.3493 132.101C82.3816 133.608 82.4222 135.09 82.4716 136.541C82.5126 137.745 80.259 139.341 80.3121 140.5C80.38 141.981 82.7585 143.009 82.8468 144.402C83.3898 152.968 84.3257 159.754 85.7343 163.128C85.7343 163.128 25.6343 179.865 21.0697 153.999C21.0697 153.999 21.3304 144.702 21.2938 131.863C21.2905 130.724 20.3204 129.691 20.3121 128.5C20.3059 127.615 21.2628 126.582 21.2534 125.672C21.2457 124.924 20.3222 124.263 20.3121 123.5C20.3061 123.045 21.2144 122.493 21.2076 122.034C20.8426 97.6204 19.2034 66.8533 13.4621 58.9038L38.5672 45.2101V45.2102Z" fill="#6C63FF"/>
<path d="M65.1937 45.2102C65.1937 45.2102 82.6375 51.5493 88.1726 56.5993C91.1139 59.2828 110.839 109.875 110.839 109.875L138.237 157.589L123.996 162.999L94.8634 119.004L81.9304 90.095L65.1937 45.2102V45.2102Z" fill="#6C63FF"/>
<path d="M29.0121 168.641C31.5564 172.972 31.3847 177.795 28.6286 179.414C25.8726 181.033 21.576 178.835 19.0318 174.504C17.9181 172.608 17.3249 170.618 17.241 168.844L6.69061 150.357L15.4712 145.591L24.9399 164.321C26.4489 165.258 27.8985 166.745 29.0121 168.641Z" fill="#FFB6B6"/>
<path d="M34.7634 68.7937L27.1558 51.2962C27.1558 51.2962 9.27789 57.0019 9.27789 65.3703C9.27789 65.3703 -1.37275 129.274 0.148771 145.25L10.0387 162.748L24.1127 151.717L15.364 131.556L34.7634 68.7937V68.7937Z" fill="#6C63FF"/>
<path d="M19.1176 182.47L28.0912 164.649L38.5672 179.104L29.1388 188.233L19.1176 182.47Z" fill="#2F2E41"/>
<path d="M54.1226 45.1835C63.7382 45.1835 71.5332 37.3885 71.5332 27.7729C71.5332 18.1573 63.7382 10.3623 54.1226 10.3623C44.507 10.3623 36.712 18.1573 36.712 27.7729C36.712 37.3885 44.507 45.1835 54.1226 45.1835Z" fill="#FFB6B6"/>
<path d="M67.6991 8.32379C64.6735 7.35478 63.2419 3.75585 60.4744 2.19581C57.4137 0.470571 53.7522 -0.606435 50.3771 0.369715C48.3062 0.968675 46.502 2.29247 44.4297 2.88639C44.0674 2.99022 43.6863 3.06181 43.2994 3.09867C41.0707 3.31099 39.1573 4.64756 38.0435 6.58962L38.0144 6.6398C37.3605 7.75876 36.4311 8.68551 35.6062 9.68502C32.5961 13.3326 30.967 18.0731 31.0005 22.8023C31.0365 27.8857 32.9925 32.9328 36.3916 36.7129L37.2598 36.3125C39.3582 38.1251 41.4565 39.9376 43.5549 41.7501C42.413 37.6296 41.2604 33.3649 41.8649 29.1322C42.4694 24.8994 45.3159 20.6764 49.5128 19.8592C51.1005 19.5501 52.775 19.737 54.3162 19.2462C55.8574 18.7554 57.277 17.1709 56.7483 15.6422C57.7026 18.1652 61.2622 18.0162 63.7121 19.145C69.1956 21.6713 67.1883 17.767 71.9483 21.481C73.5561 12.5701 79.715 12.1722 67.6991 8.32379L67.6991 8.32379Z" fill="#2F301F"/>
</svg>
