<svg width="485" height="431" viewBox="0 0 485 431" fill="none" xmlns="http://www.w3.org/2000/svg">
<path d="M242.52 308.951C178.088 308.951 117.482 299.359 71.8679 281.943C25.6457 264.295 0.190186 240.588 0.190186 215.188C0.190186 189.789 25.6458 166.083 71.8679 148.434C117.482 131.018 178.088 121.427 242.52 121.427C306.953 121.427 367.558 131.018 413.173 148.434C459.394 166.083 484.85 189.79 484.85 215.188C484.85 240.587 459.394 264.295 413.173 281.943C367.558 299.359 306.953 308.951 242.52 308.951V308.951ZM242.52 125.427C178.563 125.427 118.465 134.925 73.2947 152.171C28.7317 169.186 4.19018 191.566 4.19018 215.188C4.19018 238.81 28.7317 261.191 73.2947 278.206C118.465 295.453 178.563 304.951 242.52 304.951C306.477 304.951 366.576 295.453 411.745 278.206C456.308 261.191 480.85 238.811 480.85 215.188C480.85 191.565 456.308 169.186 411.745 152.171C366.575 134.925 306.477 125.427 242.52 125.427V125.427Z" fill="#61DAFB"/>
<path d="M342.642 430.378C322.618 430.378 297.657 418.805 270.035 396.355C232.145 365.56 193.535 317.87 161.32 262.07C129.103 206.27 107.107 148.988 99.383 100.777C91.5559 51.9228 99.3591 18.0243 121.355 5.32512C143.351 -7.37361 176.611 2.8178 215.005 34.0224C252.895 64.8178 291.505 112.508 323.72 168.308C355.937 224.107 377.933 281.39 385.657 329.601C393.484 378.455 385.681 412.353 363.685 425.054C357.513 428.616 350.452 430.378 342.642 430.378V430.378ZM142.505 3.96917C135.365 3.96917 128.943 5.56292 123.355 8.78899C102.897 20.6005 95.7864 53.0439 103.333 100.144C110.982 147.886 132.805 204.682 164.783 260.07C196.762 315.458 235.037 362.756 272.558 393.251C309.575 423.337 341.228 433.402 361.685 421.589C382.143 409.777 389.254 377.334 381.707 330.234C374.058 282.492 352.235 225.696 320.257 170.308C288.278 114.92 250.003 67.622 212.482 37.1269C185.576 15.2587 161.504 3.96917 142.505 3.96917Z" fill="#61DAFB"/>
<path d="M142.397 430.378C134.586 430.378 127.528 428.617 121.355 425.054C99.3591 412.353 91.5559 378.455 99.383 329.602C107.107 281.39 129.103 224.107 161.32 168.308C193.535 112.508 232.145 64.8178 270.035 34.0224C308.43 2.81731 341.69 -7.37507 363.685 5.32512C385.681 18.0243 393.484 51.9228 385.657 100.777C377.933 148.988 355.937 206.27 323.72 262.07C291.505 317.87 252.895 365.56 215.005 396.355C187.385 418.804 162.421 430.378 142.397 430.378V430.378ZM342.535 3.96917C323.536 3.96917 299.467 15.2573 272.558 37.1269C235.037 67.622 196.762 114.92 164.783 170.308C132.805 225.696 110.982 282.492 103.333 330.234C95.7864 377.334 102.897 409.777 123.355 421.589C128.942 424.814 135.367 426.408 142.505 426.409C161.504 426.411 185.573 415.121 212.482 393.251C250.003 362.756 288.278 315.458 320.257 260.07C352.235 204.682 374.058 147.886 381.707 100.144C389.254 53.0439 382.143 20.6005 361.685 8.78899C356.098 5.56389 349.673 3.96917 342.535 3.96917V3.96917Z" fill="#61DAFB"/>
<path d="M242.52 259.978C267.256 259.978 287.309 239.925 287.309 215.189C287.309 190.453 267.256 170.4 242.52 170.4C217.784 170.4 197.731 190.453 197.731 215.189C197.731 239.925 217.784 259.978 242.52 259.978Z" fill="#61DAFB"/>
</svg>
